<svg xmlns="http://www.w3.org/2000/svg" width="10.876" height="14.146" viewBox="0 0 10.876 14.146"><g transform="translate(1265.138 -1249.045)"><path d="M-1255.409,1254.747a3.754,3.754,0,0,1,.373.086,1.057,1.057,0,0,1,.751.9,2.1,2.1,0,0,1,.022.309q0,2.939,0,5.878a1.136,1.136,0,0,1-.824,1.22,1.867,1.867,0,0,1-.473.049q-4.145,0-8.291,0a1.152,1.152,0,0,1-1.287-1.281q0-2.927,0-5.854a1.156,1.156,0,0,1,1.282-1.289l6.284-.005h.331a15.276,15.276,0,0,0-.1-1.976,2.35,2.35,0,0,0-2.448-1.88,2.446,2.446,0,0,0-2.24,2.2c-.007.079-.008.159-.016.238a.858.858,0,0,1-1,.9.911.911,0,0,1-.859-.916,4.256,4.256,0,0,1,4.675-4.265,4.338,4.338,0,0,1,3.741,3.588,9.3,9.3,0,0,1,.075,1C-1255.4,1254.011-1255.409,1254.369-1255.409,1254.747Zm-4.779,5.43c0,.2,0,.4,0,.6.007.366.2.587.514.591.335,0,.527-.2.533-.591s.008-.748,0-1.122a.573.573,0,0,1,.2-.48,1.033,1.033,0,0,0,.053-1.457,1.051,1.051,0,0,0-1.48-.083,1.006,1.006,0,0,0-.086,1.468.828.828,0,0,1,.267.719C-1260.2,1259.937-1260.188,1260.057-1260.188,1260.177Z" transform="translate(0 0)" fill="#29abe2" fill-rule="evenodd"/></g></svg>